<svg width="17" height="14" viewBox="0 0 17 14" fill="none" xmlns="http://www.w3.org/2000/svg">
<path fill-rule="evenodd" clip-rule="evenodd" d="M8.20303 2.58503H4.78912C4.67365 2.58503 4.56291 2.6309 4.48126 2.71255C4.39961 2.7942 4.35374 2.90494 4.35374 3.02041V3.89115C4.35374 4.00662 4.39961 4.11736 4.48126 4.19901C4.56291 4.28066 4.67365 4.32653 4.78912 4.32653H8.01049C8.00353 4.21858 8 4.1097 8 4C8 3.50856 8.0709 3.03368 8.20303 2.58503ZM8.95437 6.93877H4.78912C4.67365 6.93877 4.56291 6.98464 4.48126 7.06629C4.39961 7.14794 4.35374 7.25868 4.35374 7.37415V8.2449C4.35374 8.36036 4.39961 8.4711 4.48126 8.55275C4.56291 8.6344 4.67365 8.68027 4.78912 8.68027H11.2369C10.3158 8.33311 9.52417 7.72183 8.95437 6.93877ZM0.435374 10.8571H2.17687C2.29234 10.8571 2.40308 10.903 2.48473 10.9847C2.56638 11.0663 2.61224 11.177 2.61224 11.2925V13.034C2.61224 13.1495 2.56638 13.2602 2.48473 13.3419C2.40308 13.4235 2.29234 13.4694 2.17687 13.4694H0.435374C0.319906 13.4694 0.209167 13.4235 0.127518 13.3419C0.0458697 13.2602 0 13.1495 0 13.034V11.2925C0 11.177 0.0458697 11.0663 0.127518 10.9847C0.209167 10.903 0.319906 10.8571 0.435374 10.8571ZM0.435374 2.14966H2.17687C2.29234 2.14966 2.40308 2.19553 2.48473 2.27718C2.56638 2.35882 2.61224 2.46956 2.61224 2.58503V4.32653C2.61224 4.442 2.56638 4.55274 2.48473 4.63438C2.40308 4.71603 2.29234 4.7619 2.17687 4.7619H0.435374C0.319906 4.7619 0.209167 4.71603 0.127518 4.63438C0.0458697 4.55274 0 4.442 0 4.32653V2.58503C0 2.46956 0.0458697 2.35882 0.127518 2.27718C0.209167 2.19553 0.319906 2.14966 0.435374 2.14966ZM0.435374 6.5034H2.17687C2.29234 6.5034 2.40308 6.54927 2.48473 6.63092C2.56638 6.71257 2.61224 6.82331 2.61224 6.93877V8.68027C2.61224 8.79574 2.56638 8.90648 2.48473 8.98813C2.40308 9.06978 2.29234 9.11564 2.17687 9.11564H0.435374C0.319906 9.11564 0.209167 9.06978 0.127518 8.98813C0.0458697 8.90648 0 8.79574 0 8.68027V6.93877C0 6.82331 0.0458697 6.71257 0.127518 6.63092C0.209167 6.54927 0.319906 6.5034 0.435374 6.5034ZM4.78912 11.2925H13.4966C13.6121 11.2925 13.7228 11.3384 13.8045 11.42C13.8861 11.5017 13.932 11.6124 13.932 11.7279V12.5986C13.932 12.7141 13.8861 12.8248 13.8045 12.9065C13.7228 12.9881 13.6121 13.034 13.4966 13.034H4.78912C4.67365 13.034 4.56291 12.9881 4.48126 12.9065C4.39961 12.8248 4.35374 12.7141 4.35374 12.5986V11.7279C4.35374 11.6124 4.39961 11.5017 4.48126 11.42C4.56291 11.3384 4.67365 11.2925 4.78912 11.2925Z" fill="white"/>
<path d="M10.4354 4.91837H12.1769V6.65986C12.1769 6.90041 12.3717 7.09524 12.6122 7.09524H13.483C13.7235 7.09524 13.9184 6.90041 13.9184 6.65986V4.91837H15.6599C15.9004 4.91837 16.0952 4.72354 16.0952 4.48299V3.61225C16.0952 3.3717 15.9004 3.17687 15.6599 3.17687H13.9184V1.43537C13.9184 1.19483 13.7235 1 13.483 1H12.6122C12.3717 1 12.1769 1.19483 12.1769 1.43537V3.17687H10.4354C10.1948 3.17687 10 3.3717 10 3.61225V4.48299C10 4.72354 10.1948 4.91837 10.4354 4.91837Z" fill="white"/>
</svg>
