<svg width="6" height="10" viewBox="0 0 6 10" fill="none" xmlns="http://www.w3.org/2000/svg">
<path d="M0.200001 1.60005C0.055572 1.40748 -0.0145469 1.16927 0.00251712 0.929158C0.0195812 0.689049 0.122682 0.463151 0.292894 0.29294C0.463105 0.122729 0.689002 0.0196276 0.929112 0.00256348C1.16922 -0.0145006 1.40743 0.0556173 1.6 0.200047L5.6 4.20005C5.78323 4.38698 5.88586 4.63829 5.88586 4.90005C5.88586 5.1618 5.78323 5.41312 5.6 5.60005L1.6 9.60005C1.40743 9.74448 1.16922 9.8146 0.929112 9.79753C0.689002 9.78047 0.463105 9.67737 0.292894 9.50715C0.122682 9.33694 0.0195812 9.11105 0.00251712 8.87094C-0.0145469 8.63083 0.055572 8.39262 0.200001 8.20005L3.49 4.90005L0.190001 1.60005H0.200001Z" fill="#A0AEC0"/>
</svg>
