<svg width="138" height="187" viewBox="0 0 138 187" fill="none" xmlns="http://www.w3.org/2000/svg">
<path d="M46.166 111.765L36.6275 110.083C35.0377 109.803 33.8235 107.393 34.199 105.263L36.4521 92.4856C36.8276 90.3559 38.7928 88.5066 40.3826 88.7869L49.9212 90.4688C51.5109 90.7491 52.7252 93.1591 52.3497 95.2887L50.0966 108.067C49.7211 110.196 47.7558 112.046 46.166 111.765Z" fill="#4A5568" fill-opacity="0.2"/>
<path d="M88.2261 152.12L78.6876 150.438C77.0978 150.157 75.8836 147.747 76.2591 145.618L84.1449 100.895C84.5204 98.7654 86.4857 96.9161 88.0754 97.1964L97.614 98.8783C99.2038 99.1587 100.418 101.569 100.042 103.698L92.1567 148.421C91.7812 150.551 89.8159 152.4 88.2261 152.12Z" fill="#4A5568" fill-opacity="0.2"/>
<path d="M40.5333 143.71L30.9947 142.028C29.405 141.748 28.1907 139.338 28.5663 137.208L30.8193 124.43C31.1949 122.301 33.1601 120.451 34.7499 120.732L44.2885 122.414C45.8782 122.694 47.0925 125.104 46.7169 127.233L44.4639 140.011C44.0883 142.141 42.1231 143.99 40.5333 143.71Z" fill="#4A5568" fill-opacity="0.2"/>
<path d="M70.0124 115.97L60.4739 114.288C58.8841 114.008 57.6699 111.598 58.0454 109.468L60.2985 96.6903C60.674 94.5607 62.6393 92.7114 64.229 92.9917L73.7676 94.6736C75.3573 94.9539 76.5716 97.3639 76.1961 99.4935L73.943 112.271C73.5675 114.401 71.6022 116.25 70.0124 115.97Z" fill="#4A5568" fill-opacity="0.2"/>
<path d="M64.3797 147.915L54.8412 146.233C53.2514 145.953 52.0372 143.543 52.4127 141.413L54.6658 128.635C55.0413 126.505 57.0065 124.656 58.5963 124.936L68.1349 126.618C69.7246 126.899 70.9389 129.309 70.5634 131.438L68.3103 144.216C67.9348 146.346 65.9695 148.195 64.3797 147.915Z" fill="#4A5568" fill-opacity="0.2"/>
<path d="M42.2982 44.5506L39.8944 46.3201L48.6986 47.8725L47.1632 45.4085L42.2982 44.5506Z" fill="#4A5568" fill-opacity="0.2"/>
<path d="M42.7748 38.9686L41.0088 36.5451L39.4564 45.3493L41.9239 43.7941L42.7748 38.9686Z" fill="#4A5568" fill-opacity="0.2"/>
<path d="M47.7122 44.7132L49.4817 47.117L51.0341 38.3128L48.5666 39.868L47.7122 44.7132Z" fill="#4A5568" fill-opacity="0.2"/>
<path d="M52.2075 27.8578L43.4033 26.3053L45.0569 28.7902L49.8825 29.6411L52.2075 27.8578Z" fill="#4A5568" fill-opacity="0.2"/>
<path d="M42.6237 27.0411L41.0712 35.8453L43.5527 34.2114L44.414 29.3267L42.6237 27.0411Z" fill="#4A5568" fill-opacity="0.2"/>
<path d="M51.0966 37.6131L52.649 28.8089L50.1641 30.4625L49.3063 35.3275L51.0966 37.6131Z" fill="#4A5568" fill-opacity="0.2"/>
<path d="M63.9577 47.5778L65.7075 49.9781L67.2599 41.1739L64.8121 42.7325L63.9577 47.5778Z" fill="#4A5568" fill-opacity="0.2"/>
<path d="M68.4529 30.7223L59.6291 29.1664L61.2827 31.6513L66.1476 32.5091L68.4529 30.7223Z" fill="#4A5568" fill-opacity="0.2"/>
<path d="M67.3224 40.4741L68.8748 31.6699L66.4096 33.327L65.5518 38.192L67.3224 40.4741Z" fill="#4A5568" fill-opacity="0.2"/>
<path d="M80.1047 50.4249L81.8545 52.8252L83.4069 44.021L80.9591 45.5797L80.1047 50.4249Z" fill="#4A5568" fill-opacity="0.2"/>
<path d="M84.5999 33.5694L75.7761 32.0135L77.4297 34.4984L82.2946 35.3563L84.5999 33.5694Z" fill="#4A5568" fill-opacity="0.2"/>
<path d="M83.4694 43.3213L85.0218 34.5171L82.5566 36.1742L81.6988 41.0391L83.4694 43.3213Z" fill="#4A5568" fill-opacity="0.2"/>
<path d="M90.7589 53.0956L88.3945 54.872L97.179 56.4209L95.6436 53.9569L90.7589 53.0956Z" fill="#4A5568" fill-opacity="0.2"/>
<path d="M96.1926 53.2616L97.9424 55.662L99.4948 46.8578L97.047 48.4164L96.1926 53.2616Z" fill="#4A5568" fill-opacity="0.2"/>
<path d="M90.4415 44.8756C90.8517 45.3134 91.2476 45.7556 91.6292 46.202L97.0062 47.1501L98.576 46.3099L97.3813 45.0229L92.0043 44.0748L90.4415 44.8756Z" fill="#4A5568" fill-opacity="0.2"/>
<path d="M100.688 36.4062L91.864 34.8503L93.5176 37.3352L98.3825 38.193L100.688 36.4062Z" fill="#4A5568" fill-opacity="0.2"/>
<path d="M99.5573 46.158L101.11 37.3538L98.6445 39.0109L97.7867 43.8759L99.5573 46.158Z" fill="#4A5568" fill-opacity="0.2"/>
<path d="M112.3 56.1019L114.07 58.5056L115.622 49.7015L113.155 51.2566L112.3 56.1019Z" fill="#4A5568" fill-opacity="0.2"/>
<path d="M106.549 47.7158C106.959 48.1537 107.362 48.5969 107.757 49.0456L113.134 49.9938L114.703 49.1536L113.509 47.8666L108.132 46.9185L106.549 47.7158Z" fill="#4A5568" fill-opacity="0.2"/>
<path d="M107.212 38.4297L105.659 47.2339L108.141 45.6L109.002 40.7154L107.212 38.4297Z" fill="#4A5568" fill-opacity="0.2"/>
<path d="M115.685 49.0017L117.237 40.1975L114.752 41.8511L113.894 46.7161L115.685 49.0017Z" fill="#4A5568" fill-opacity="0.2"/>
<path fill-rule="evenodd" clip-rule="evenodd" d="M40.3004 0.938021L127.737 16.3555C134.096 17.4768 138.346 25.9116 136.844 34.4302L112.436 172.857C110.934 181.376 104.055 187.849 97.6962 186.727L10.2593 171.31C3.90026 170.188 -0.349604 161.754 1.15245 153.235L25.5609 14.808C27.0629 6.2894 33.9414 -0.18325 40.3004 0.938021ZM13.0757 155.337L100.513 170.755L115.533 85.569L28.0962 70.1515L13.0757 155.337ZM30.9126 54.1792L118.349 69.5967L124.921 32.3278L37.4841 16.9104L30.9126 54.1792Z" fill="#4A5568" fill-opacity="0.2"/>
</svg>
