<svg width="15" height="15" viewBox="0 0 15 15" fill="none" xmlns="http://www.w3.org/2000/svg">
<path d="M3.22728 7.71985L10.7326 0.214545C10.8729 0.0770272 11.0615 0 11.258 0C11.4544 0 11.643 0.0770272 11.7833 0.214545L14.7855 3.21667C14.923 3.35696 15 3.54559 15 3.74204C15 3.93849 14.923 4.12711 14.7855 4.26741L7.28015 11.7727C7.14158 11.9141 6.95274 11.9951 6.75478 11.9979H3.75265C3.5536 11.9979 3.3627 11.9188 3.22195 11.7781C3.0812 11.6373 3.00212 11.4464 3.00212 11.2473V8.24522C3.00494 8.04726 3.08587 7.85842 3.22728 7.71985ZM4.50318 10.4968H6.44706L13.2018 3.74204L11.258 1.79816L4.50318 8.55294V10.4968ZM12.0085 8.99575C12.0085 8.7967 12.0876 8.6058 12.2283 8.46505C12.3691 8.3243 12.56 8.24522 12.759 8.24522C12.9581 8.24522 13.149 8.3243 13.2897 8.46505C13.4305 8.6058 13.5096 8.7967 13.5096 8.99575V13.4989C13.5096 13.897 13.3514 14.2788 13.0699 14.5603C12.7884 14.8419 12.4066 15 12.0085 15H1.50106C1.10296 15 0.721154 14.8419 0.439651 14.5603C0.158147 14.2788 0 13.897 0 13.4989V2.99151C0 2.16592 0.675478 1.49045 1.50106 1.49045H6.00425C6.2033 1.49045 6.3942 1.56952 6.53495 1.71027C6.6757 1.85102 6.75478 2.04192 6.75478 2.24098C6.75478 2.44003 6.6757 2.63093 6.53495 2.77168C6.3942 2.91243 6.2033 2.99151 6.00425 2.99151H1.50106V13.4989H12.0085V8.99575Z" fill="#718096"/>
</svg>
