<svg width="45" height="46" viewBox="0 0 45 46" fill="none" xmlns="http://www.w3.org/2000/svg">
<path d="M34.7813 8.76914C45.9111 15.5981 34.7814 23.3293 33.0695 29.9154C32.0224 33.944 23.636 46.3655 13.4351 38.4095C1.52847 29.2398 14.6038 16.5713 14.6038 16.5713C14.6038 16.5713 23.6515 1.94022 34.7813 8.76914Z" fill="#C6F6D5"/>
<path d="M15 8H28.5C28.8957 8.00564 29.2731 8.16738 29.55 8.45L35.55 14.45C35.8326 14.7269 35.9944 15.1043 36 15.5V35C36 35.7957 35.6839 36.5587 35.1213 37.1213C34.5587 37.6839 33.7957 38 33 38H15C14.2044 38 13.4413 37.6839 12.8787 37.1213C12.3161 36.5587 12 35.7957 12 35V11C12 9.35 13.35 8 15 8ZM28.5 11.615V15.5H32.385L28.5 11.615ZM33 18.5H28.5C27.7044 18.5 26.9413 18.1839 26.3787 17.6213C25.8161 17.0587 25.5 16.2956 25.5 15.5V11H15V35H33V18.5ZM30 29C30 29.3978 29.842 29.7794 29.5607 30.0607C29.2794 30.342 28.8978 30.5 28.5 30.5H19.5C19.1022 30.5 18.7206 30.342 18.4393 30.0607C18.158 29.7794 18 29.3978 18 29C18 28.6022 18.158 28.2206 18.4393 27.9393C18.7206 27.658 19.1022 27.5 19.5 27.5H28.5C28.8978 27.5 29.2794 27.658 29.5607 27.9393C29.842 28.2206 30 28.6022 30 29ZM30 23C30 23.3978 29.842 23.7794 29.5607 24.0607C29.2794 24.342 28.8978 24.5 28.5 24.5H19.5C19.1022 24.5 18.7206 24.342 18.4393 24.0607C18.158 23.7794 18 23.3978 18 23C18 22.6022 18.158 22.2206 18.4393 21.9393C18.7206 21.658 19.1022 21.5 19.5 21.5H28.5C28.8978 21.5 29.2794 21.658 29.5607 21.9393C29.842 22.2206 30 22.6022 30 23ZM22.5 17C22.5 17.3978 22.342 17.7794 22.0607 18.0607C21.7794 18.342 21.3978 18.5 21 18.5H19.5C19.1022 18.5 18.7206 18.342 18.4393 18.0607C18.158 17.7794 18 17.3978 18 17C18 16.6022 18.158 16.2206 18.4393 15.9393C18.7206 15.658 19.1022 15.5 19.5 15.5H21C21.3978 15.5 21.7794 15.658 22.0607 15.9393C22.342 16.2206 22.5 16.6022 22.5 17Z" fill="#38A169"/>
</svg>
