<svg width="145" height="172" viewBox="0 0 145 172" fill="none" xmlns="http://www.w3.org/2000/svg">
<path fill-rule="evenodd" clip-rule="evenodd" d="M78.4964 6.65455L43.8735 12.1383L43.8668 12.1393L43.8665 12.1394C42.5915 12.3415 41.7217 13.5388 41.9237 14.8138C42.1256 16.0889 43.323 16.9589 44.5981 16.7569C44.6193 16.7535 44.6404 16.7499 44.6614 16.746L46.0178 16.5312L46.0222 16.5342C46.059 16.5265 46.0961 16.5197 46.1336 16.5138C47.4006 16.3131 48.5909 17.1708 48.8041 18.4327L48.8394 18.4567L48.8677 18.4783L49.0688 19.7475L52.6755 42.8332L52.6613 42.8523C52.7335 43.9998 51.9528 45.0391 50.8194 45.2818C25.7008 55.9961 10.0813 82.7378 14.5474 110.936C19.8181 144.214 51.0682 166.918 84.3464 161.648C117.625 156.377 140.329 125.127 135.058 91.8485C130.682 64.2153 108.392 43.8728 81.9024 40.7843C80.7867 40.768 79.8111 39.952 79.6306 38.8123C79.615 38.7138 79.6058 38.6158 79.6027 38.5186L75.9068 15.4969L75.7057 14.2276L75.712 14.2186L75.7068 14.1873C75.5049 12.9122 76.3748 11.7148 77.6499 11.5128C77.7156 11.5024 77.7811 11.4948 77.8462 11.49L79.1929 11.2767C79.2141 11.274 79.2353 11.2709 79.2565 11.2676C80.5316 11.0656 81.4015 9.8682 81.1996 8.5931C80.9976 7.318 79.8002 6.44804 78.5251 6.65L78.5034 6.65344L78.4964 6.65455ZM121.587 103.085C121.587 119.223 94.5464 132.305 78.3899 132.305C64.0696 132.305 52.1526 122.027 49.6289 108.454L28.0832 124.606C34.1175 107.897 34.2491 98.4442 28.0832 81.5646L49.6288 97.7169C52.1524 84.1436 64.0695 73.866 78.3899 73.866C84.8933 73.866 93.1602 75.9856 100.717 79.571C98.1269 80.9296 96.5668 83.8305 97.0497 86.8796C97.6556 90.7049 101.248 93.3148 105.073 92.7089C108.526 92.162 110.988 89.1822 110.99 85.794C117.24 90.6357 121.587 96.6149 121.587 103.085ZM81.9679 112.095C87.8892 111.158 93.5794 105.915 92.9735 102.09C92.6154 99.8291 90.3835 100.927 87.3954 102.397C85.3275 103.414 82.8975 104.609 80.4758 104.993C77.7235 105.429 75.4664 104.739 73.8995 104.261C72.0953 103.71 71.2064 103.439 71.5306 105.486C72.1365 109.311 76.0467 113.033 81.9679 112.095Z" fill="#4A5568" fill-opacity="0.2"/>
</svg>
